<svg width="504" height="504" viewBox="0 0 504 504" fill="none" xmlns="http://www.w3.org/2000/svg">
<path d="M460.833 277.06L402.166 340.809L269.583 484.849L266.899 487.762L251.951 504L220.61 469.909L217.851 466.913L160.551 404.6H160.539L142.179 384.62L131.331 372.815L99.0251 337.689L94.6615 332.939L43.168 276.936C32.9379 265.676 24.2671 252.822 17.4339 238.785C16.8068 237.529 16.2171 236.259 15.6403 234.988C3.42883 208.183 -1.79605 178.176 0.54573 148.298C2.88751 118.421 12.7043 89.8429 28.9062 65.737C45.1081 41.631 67.0611 22.9403 92.3277 11.7404C117.594 0.540452 145.186 -2.73058 172.039 2.29042H172.052C172.528 2.37327 172.993 2.45609 173.469 2.56655C178.507 3.54529 183.493 4.82206 188.405 6.39125C201.26 10.4826 213.547 16.4892 224.924 24.2444C226.116 25.059 227.295 25.8874 228.461 26.7297C236.801 32.7971 244.561 39.7778 251.624 47.5652L252.063 47.082L252.502 47.5652C256.781 42.8558 261.317 38.4385 266.084 34.3376C267.125 33.4402 268.179 32.5565 269.232 31.7004C285.36 18.6074 303.746 9.27535 323.263 4.27542C342.78 -0.724508 363.019 -1.28718 382.741 2.62179C387.784 3.60012 392.774 4.88153 397.69 6.46028C399.332 6.97124 400.963 7.52355 402.58 8.11719C403.885 8.58665 405.189 9.06988 406.48 9.59456C417.235 13.8273 427.501 19.4347 437.068 26.3017C439.162 27.8066 441.227 29.3807 443.263 31.0238C460.496 44.816 474.809 62.5567 485.216 83.0243C495.623 103.492 501.877 126.2 503.546 149.584C505.216 172.968 502.263 196.473 494.889 218.48C487.515 240.487 475.896 260.472 460.833 277.06Z" fill="#DEDEDE"/>
</svg>
