<svg width="1750" height="2200" viewBox="0 0 1750 2200" fill="none" xmlns="http://www.w3.org/2000/svg">
<path d="M875 1801.1C1358.25 1801.1 1750 1433.09 1750 979.12C1750 525.156 1358.25 157.145 875 157.145C391.751 157.145 0 525.156 0 979.12C0 1433.09 391.751 1801.1 875 1801.1Z" fill="#3F3D56"/>
<path d="M324.114 1045.11C345.845 1020.67 373.024 1001.01 403.73 987.521C434.436 974.031 467.921 967.039 501.819 967.039C535.717 967.039 569.201 974.031 599.907 987.521C630.613 1001.01 657.792 1020.67 679.523 1045.11C716.708 1011.76 742.409 968.718 753.314 921.524C764.219 874.33 759.829 825.15 740.708 780.321C721.587 735.493 688.613 697.071 646.035 670.008C603.457 642.946 553.227 628.482 501.819 628.482C450.41 628.482 400.18 642.946 357.602 670.008C315.024 697.071 282.05 735.493 262.929 780.321C243.809 825.15 239.418 874.33 250.323 921.524C261.228 968.718 286.929 1011.76 324.114 1045.11Z" fill="white"/>
<path d="M1018.99 1045.11C1040.72 1020.67 1067.9 1001.01 1098.6 987.521C1129.31 974.031 1162.79 967.039 1196.69 967.039C1230.59 967.039 1264.07 974.031 1294.78 987.521C1325.48 1001.01 1352.66 1020.67 1374.39 1045.11C1411.58 1011.76 1437.28 968.718 1448.19 921.524C1459.09 874.33 1454.7 825.149 1435.58 780.321C1416.46 735.493 1383.48 697.071 1340.91 670.008C1298.33 642.946 1248.1 628.482 1196.69 628.482C1145.28 628.482 1095.05 642.946 1052.47 670.008C1009.9 697.071 976.921 735.493 957.8 780.321C938.68 825.149 934.289 874.33 945.194 921.524C956.099 968.718 981.801 1011.76 1018.99 1045.11Z" fill="white"/>
<path d="M414.054 871.078C462.946 871.078 502.581 833.845 502.581 787.915C502.581 741.985 462.946 704.752 414.054 704.752C365.162 704.752 325.527 741.985 325.527 787.915C325.527 833.845 365.162 871.078 414.054 871.078Z" fill="#3F3D56"/>
<path d="M1108.86 871.078C1157.75 871.078 1197.38 833.845 1197.38 787.915C1197.38 741.985 1157.75 704.752 1108.86 704.752C1059.96 704.752 1020.33 741.985 1020.33 787.915C1020.33 833.845 1059.96 871.078 1108.86 871.078Z" fill="#3F3D56"/>
<path d="M244.496 1281.31C301.349 1281.31 347.437 1238.02 347.437 1184.61C347.437 1131.2 301.349 1087.91 244.496 1087.91C187.643 1087.91 141.555 1131.2 141.555 1184.61C141.555 1238.02 187.643 1281.31 244.496 1281.31Z" fill="#FF477E"/>
<path d="M1428.29 1281.31C1485.15 1281.31 1531.23 1238.02 1531.23 1184.61C1531.23 1131.2 1485.15 1087.91 1428.29 1087.91C1371.44 1087.91 1325.35 1131.2 1325.35 1184.61C1325.35 1238.02 1371.44 1281.31 1428.29 1281.31Z" fill="#FF477E"/>
<path d="M836.386 991.211L759.18 1305.5L887.857 1184.62L836.386 991.211Z" fill="#FF477E"/>
<path d="M1233.11 2200L1145.45 2130.89L1147.49 2200H1120.27L1118.1 2126.92L999.749 2200H950.206L1117.21 2096.88L1110.74 1880.35L1105.91 1716.82L1133.07 1716.11L1137.97 1880.35L1144.43 2096.69L1275.43 2200H1233.11Z" fill="#3F3D56"/>
<path d="M821.308 2200L733.655 2130.89L735.697 2200H708.546L706.367 2126.92L588.02 2200H538.477L705.414 2096.88L698.95 1880.35L694.118 1716.82L721.337 1716.11L726.238 1880.35L732.634 2096.69L863.64 2200H821.308Z" fill="#3F3D56"/>
<path d="M887.858 96.7028C863.848 96.7028 842.668 114.222 828.508 141.132C816.027 100.668 789.804 72.5273 759.181 72.5273C757.1 72.7216 755.035 73.0475 753 73.5026C741.229 30.2993 713.871 0 681.975 0C639.335 0 604.769 54.1196 604.769 120.879C604.769 187.638 639.335 241.758 681.975 241.758C684.056 241.563 686.121 241.237 688.156 240.782C699.927 283.985 727.285 314.285 759.181 314.285C783.19 314.285 804.37 296.765 818.53 269.855C831.012 310.32 857.234 338.46 887.858 338.46C930.497 338.46 965.064 284.341 965.064 217.581C965.064 150.822 930.497 96.7028 887.858 96.7028Z" fill="#3F3D56"/>
</svg>
